<svg width="65" height="15" viewBox="0 0 65 15" fill="none" xmlns="http://www.w3.org/2000/svg">
<path d="M0.920455 12V5.45455H1.89205V6.47727H1.97727C2.11364 6.12784 2.33381 5.85653 2.63778 5.66335C2.94176 5.46733 3.30682 5.36932 3.73295 5.36932C4.16477 5.36932 4.52415 5.46733 4.81108 5.66335C5.10085 5.85653 5.3267 6.12784 5.48864 6.47727H5.55682C5.72443 6.1392 5.97585 5.87074 6.31108 5.67188C6.64631 5.47017 7.0483 5.36932 7.51705 5.36932C8.10227 5.36932 8.58097 5.55256 8.95312 5.91903C9.32528 6.28267 9.51136 6.84943 9.51136 7.61932V12H8.50568V7.61932C8.50568 7.13636 8.37358 6.79119 8.10938 6.58381C7.84517 6.37642 7.53409 6.27273 7.17614 6.27273C6.71591 6.27273 6.35938 6.41193 6.10653 6.69034C5.85369 6.96591 5.72727 7.31534 5.72727 7.73864V12H4.70455V7.51705C4.70455 7.14489 4.58381 6.84517 4.34233 6.6179C4.10085 6.38778 3.78977 6.27273 3.40909 6.27273C3.14773 6.27273 2.90341 6.34233 2.67614 6.48153C2.4517 6.62074 2.26989 6.81392 2.13068 7.06108C1.99432 7.3054 1.92614 7.58807 1.92614 7.90909V12H0.920455ZM14.0945 12.1364C13.4638 12.1364 12.9197 11.9972 12.4624 11.7188C12.0078 11.4375 11.657 11.0455 11.4098 10.5426C11.1655 10.0369 11.0433 9.44886 11.0433 8.77841C11.0433 8.10795 11.1655 7.51705 11.4098 7.00568C11.657 6.49148 12.0007 6.09091 12.4411 5.80398C12.8842 5.5142 13.4013 5.36932 13.9922 5.36932C14.3331 5.36932 14.6697 5.42614 15.0021 5.53977C15.3345 5.65341 15.6371 5.83807 15.9098 6.09375C16.1825 6.34659 16.3999 6.68182 16.5618 7.09943C16.7237 7.51705 16.8047 8.03125 16.8047 8.64205V9.06818H11.7592V8.19886H15.782C15.782 7.82955 15.7081 7.5 15.5604 7.21023C15.4155 6.92045 15.2081 6.69176 14.9382 6.52415C14.6712 6.35653 14.3558 6.27273 13.9922 6.27273C13.5916 6.27273 13.245 6.37216 12.9524 6.57102C12.6626 6.76705 12.4396 7.02273 12.2834 7.33807C12.1271 7.65341 12.049 7.99148 12.049 8.35227V8.93182C12.049 9.42614 12.1342 9.84517 12.3047 10.1889C12.478 10.5298 12.718 10.7898 13.0249 10.9688C13.3317 11.1449 13.6882 11.233 14.0945 11.233C14.3587 11.233 14.5973 11.196 14.8104 11.1222C15.0263 11.0455 15.2124 10.9318 15.3686 10.7812C15.5249 10.6278 15.6456 10.4375 15.7308 10.2102L16.7024 10.483C16.6001 10.8125 16.4283 11.1023 16.1868 11.3523C15.9453 11.5994 15.647 11.7926 15.2919 11.9318C14.9368 12.0682 14.5376 12.1364 14.0945 12.1364ZM19.3402 8.0625V12H18.3345V5.45455H19.3061V6.47727H19.3913C19.5447 6.14489 19.7777 5.87784 20.0902 5.67614C20.4027 5.47159 20.8061 5.36932 21.3004 5.36932C21.7436 5.36932 22.1314 5.46023 22.4638 5.64205C22.7962 5.82102 23.0547 6.09375 23.2393 6.46023C23.424 6.82386 23.5163 7.28409 23.5163 7.84091V12H22.5107V7.90909C22.5107 7.39489 22.3771 6.99432 22.1101 6.70739C21.843 6.41761 21.4766 6.27273 21.0107 6.27273C20.6896 6.27273 20.4027 6.34233 20.1499 6.48153C19.8999 6.62074 19.7024 6.82386 19.5575 7.09091C19.4126 7.35795 19.3402 7.68182 19.3402 8.0625ZM28.2006 5.45455V6.30682H24.8086V5.45455H28.2006ZM25.7972 3.88636H26.8029V10.125C26.8029 10.4091 26.8441 10.6222 26.9265 10.7642C27.0117 10.9034 27.1197 10.9972 27.2504 11.0455C27.3839 11.0909 27.5245 11.1136 27.6722 11.1136C27.783 11.1136 27.8739 11.108 27.945 11.0966C28.016 11.0824 28.0728 11.071 28.1154 11.0625L28.32 11.9659C28.2518 11.9915 28.1566 12.017 28.0344 12.0426C27.9123 12.071 27.7575 12.0852 27.57 12.0852C27.2859 12.0852 27.0075 12.0241 26.7347 11.902C26.4648 11.7798 26.2404 11.5938 26.0614 11.3438C25.8853 11.0938 25.7972 10.7784 25.7972 10.3977V3.88636ZM32.3022 12.1364C31.7113 12.1364 31.1928 11.9957 30.7468 11.7145C30.3036 11.4332 29.957 11.0398 29.707 10.5341C29.4599 10.0284 29.3363 9.4375 29.3363 8.76136C29.3363 8.07955 29.4599 7.48437 29.707 6.97585C29.957 6.46733 30.3036 6.07244 30.7468 5.79119C31.1928 5.50994 31.7113 5.36932 32.3022 5.36932C32.8931 5.36932 33.4102 5.50994 33.8533 5.79119C34.2994 6.07244 34.646 6.46733 34.8931 6.97585C35.1431 7.48437 35.2681 8.07955 35.2681 8.76136C35.2681 9.4375 35.1431 10.0284 34.8931 10.5341C34.646 11.0398 34.2994 11.4332 33.8533 11.7145C33.4102 11.9957 32.8931 12.1364 32.3022 12.1364ZM32.3022 11.233C32.7511 11.233 33.1204 11.1179 33.4102 10.8878C33.6999 10.6577 33.9144 10.3551 34.0536 9.98011C34.1928 9.60511 34.2624 9.19886 34.2624 8.76136C34.2624 8.32386 34.1928 7.91619 34.0536 7.53835C33.9144 7.16051 33.6999 6.85511 33.4102 6.62216C33.1204 6.3892 32.7511 6.27273 32.3022 6.27273C31.8533 6.27273 31.484 6.3892 31.1942 6.62216C30.9045 6.85511 30.69 7.16051 30.5508 7.53835C30.4116 7.91619 30.342 8.32386 30.342 8.76136C30.342 9.19886 30.4116 9.60511 30.5508 9.98011C30.69 10.3551 30.9045 10.6577 31.1942 10.8878C31.484 11.1179 31.8533 11.233 32.3022 11.233ZM36.8033 12V5.45455H37.7749V6.44318H37.843C37.9624 6.11932 38.1783 5.85653 38.4908 5.65483C38.8033 5.45312 39.1555 5.35227 39.5476 5.35227C39.6214 5.35227 39.7138 5.35369 39.8246 5.35653C39.9354 5.35937 40.0192 5.36364 40.076 5.36932V6.39205C40.0419 6.38352 39.9638 6.37074 39.8416 6.35369C39.7223 6.33381 39.5959 6.32386 39.4624 6.32386C39.1442 6.32386 38.8601 6.39062 38.6101 6.52415C38.3629 6.65483 38.1669 6.83665 38.022 7.0696C37.88 7.29972 37.8089 7.5625 37.8089 7.85795V12H36.8033ZM41.4045 12V3.27273H42.4613V11.0625H46.5181V12H41.4045ZM58.1431 14.4545V5.45455H59.1147V6.49432H59.234C59.3079 6.38068 59.4102 6.2358 59.5408 6.05966C59.6744 5.88068 59.8647 5.72159 60.1119 5.58239C60.3619 5.44034 60.6999 5.36932 61.1261 5.36932C61.6772 5.36932 62.163 5.5071 62.5835 5.78267C63.0039 6.05824 63.332 6.44886 63.5678 6.95455C63.8036 7.46023 63.9215 8.05682 63.9215 8.74432C63.9215 9.4375 63.8036 10.0384 63.5678 10.5469C63.332 11.0526 63.0053 11.4446 62.5877 11.723C62.1701 11.9986 61.6886 12.1364 61.1431 12.1364C60.7227 12.1364 60.386 12.0668 60.1332 11.9276C59.8803 11.7855 59.6857 11.625 59.5494 11.446C59.413 11.2642 59.3079 11.1136 59.234 10.9943H59.1488V14.4545H58.1431ZM59.1317 8.72727C59.1317 9.22159 59.2042 9.65767 59.3491 10.0355C59.494 10.4105 59.7056 10.7045 59.984 10.9176C60.2624 11.1278 60.6033 11.233 61.0067 11.233C61.4272 11.233 61.7781 11.1222 62.0593 10.9006C62.3434 10.6761 62.5565 10.375 62.6985 9.99716C62.8434 9.61648 62.9158 9.19318 62.9158 8.72727C62.9158 8.26705 62.8448 7.85227 62.7028 7.48295C62.5636 7.1108 62.3519 6.81676 62.0678 6.60085C61.7866 6.3821 61.4329 6.27273 61.0067 6.27273C60.5977 6.27273 60.2539 6.37642 59.9755 6.58381C59.6971 6.78835 59.4869 7.07528 59.3448 7.4446C59.2028 7.81108 59.1317 8.23864 59.1317 8.72727Z" fill="black"/>
<path d="M45.8409 8.93182C45.8409 8.15152 45.9792 7.46212 46.2557 6.86364C46.536 6.26894 46.9205 5.80492 47.4091 5.47159C47.9015 5.13826 48.4621 4.97348 49.0909 4.97727C49.5833 4.97348 50.0379 5.07008 50.4545 5.26705C50.875 5.46402 51.2254 5.73295 51.5057 6.07386C51.7898 6.41856 51.9697 6.80303 52.0455 7.22727H52.1136C52.2576 6.67045 52.5701 6.22727 53.0511 5.89773C53.536 5.56818 54.0871 5.4053 54.7045 5.40909C55.2955 5.4053 55.8239 5.55492 56.2898 5.85795C56.7557 6.16098 57.1231 6.57765 57.392 7.10795C57.661 7.64205 57.7955 8.25 57.7955 8.93182C57.7955 9.60606 57.661 10.2083 57.392 10.7386C57.1231 11.2689 56.7557 11.6856 56.2898 11.9886C55.8239 12.2955 55.2955 12.4508 54.7045 12.4545C54.0871 12.4508 53.536 12.2822 53.0511 11.9489C52.5701 11.6193 52.2576 11.1818 52.1136 10.6364H52.0455C51.9697 11.0568 51.7898 11.4356 51.5057 11.7727C51.2254 12.1098 50.875 12.3788 50.4545 12.5795C50.0379 12.7803 49.5833 12.8826 49.0909 12.8864C48.4621 12.8826 47.9015 12.7121 47.4091 12.375C46.9205 12.0417 46.536 11.5777 46.2557 10.983C45.9792 10.392 45.8409 9.70833 45.8409 8.93182ZM47.0909 8.93182C47.0909 9.45833 47.1761 9.91288 47.3466 10.2955C47.517 10.678 47.7576 10.9735 48.0682 11.1818C48.3788 11.3902 48.7424 11.4962 49.1591 11.5C49.5985 11.4962 49.9867 11.3826 50.3239 11.1591C50.661 10.9356 50.9261 10.6307 51.1193 10.2443C51.3125 9.86174 51.4091 9.42424 51.4091 8.93182C51.4091 8.43561 51.3125 7.99242 51.1193 7.60227C50.9261 7.21591 50.661 6.91098 50.3239 6.6875C49.9867 6.4678 49.5985 6.35985 49.1591 6.36364C48.7424 6.35985 48.3788 6.46023 48.0682 6.66477C47.7576 6.87311 47.517 7.17045 47.3466 7.55682C47.1761 7.94318 47.0909 8.40152 47.0909 8.93182ZM52.6136 8.93182C52.6136 9.34849 52.697 9.7178 52.8636 10.0398C53.0303 10.3655 53.2633 10.6212 53.5625 10.8068C53.8617 10.9924 54.2121 11.0871 54.6136 11.0909C55.0076 11.0871 55.3504 10.9943 55.642 10.8125C55.9375 10.6307 56.1648 10.3788 56.3239 10.0568C56.4867 9.73485 56.5682 9.35985 56.5682 8.93182C56.5682 8.49621 56.4867 8.11553 56.3239 7.78977C56.1648 7.46402 55.9375 7.21212 55.642 7.03409C55.3504 6.85606 55.0076 6.76894 54.6136 6.77273C54.2121 6.76894 53.8617 6.85795 53.5625 7.03977C53.2633 7.22538 53.0303 7.48106 52.8636 7.80682C52.697 8.13258 52.6136 8.50758 52.6136 8.93182Z" fill="black"/>
</svg>
